Patient4_TMGait_0pt5_02_right_05_EMG.mot
version=1
nRows=20
nColumns=33
inDegrees=no
endheader
time	1LAddLong	2LGlutMax	3LGlutMed	4LIliopsoas	5LSemiMemb	6LBicFemLong	7LRecFem	8LVastMed	9LVastLat	10LGasMed	11LTibAnt	12lTibPost	13LPeroneusLong	14LSol	15LExtDigLong	16LFlexDigLong	17RAddLong	18RGlutMax	19RGlutMed	20RIliopsoas	21RSemiMemb	22RBicFemLong	23RRecFem	24RVastMed	25RVastLat	26RGasMed	27RTibAnt	28RTibPost	29RPeroneusLong	30RSol	31RExtDigLong	32RFlexDigLong
6.902	-0.000305	-0.24948	0.076294	0.011444	0.006866	-0.001373	0.069275	0.010681	-0.076294	0.032654	-0.007935	-0.045624	-0.12512	0.15579	-0.002441	-0.004272	0.033417	-0.27741	0.31952	0.03006	-0.06073	-0.28046	-0.001221	-0.19089	-0.13825	-0.028534	-0.019531	-0.17029	0.46585	-0.071411	0.001221	-0.001526
6.903	-0.005035	-0.26977	0.086823	0.028381	0.011597	0.005493	0.063324	0.00473	-0.06424	0.034027	-0.001831	-0.031128	-0.14847	0.12222	-0.000916	-0.005188	0.032654	-0.40619	-0.013885	0.011292	-0.40024	-0.27176	-0.004578	0.007019	-0.073242	0.003967	-0.030365	0.047302	0.52109	-0.47562	0.007782	-0.01236
6.904	-0.00351	-0.27329	0.069885	0.009155	0.005951	0.000305	0.059204	-0.000305	-0.065002	0.030975	-0.001373	-0.005035	-0.14069	0.037689	-0.008698	0.015411	-0.011597	-0.63873	-0.7132	-0.088654	-0.46387	-0.20783	0.016632	0.2124	0.013275	0.042725	-0.000153	0.21973	0.16678	-0.37262	-0.004272	-0.017242
6.905	-0.002899	-0.2475	0.056152	-0.001984	0.017242	0.013885	0.074615	0.001984	-0.05722	0.029602	0.00061	0.012665	-0.1416	0.004578	-0.004578	0.011292	0.005951	-0.75043	-0.48187	-0.1506	0.051727	-0.1976	0.25269	0.16907	-0.10071	0.050812	0.018005	0.13443	0.064087	-0.072479	-0.010071	-0.009003
6.906	-0.002289	-0.24323	0.066986	0.003204	0.023956	0.009613	0.052948	0.00885	-0.071106	0.043335	0.003357	0.032501	-0.13855	0.03006	-0.001831	0.017395	0.018921	-0.87357	0.0177	-0.18753	0.39002	-0.19333	0.33432	-0.093231	-0.16022	0.053711	0.030365	0.059357	-0.28992	0.6958	-0.004272	0.000153
6.907	-0.003357	-0.24292	0.070496	0.006104	0.00946	-0.008392	0.054169	0.006104	-0.064087	0.038147	-0.000763	0.042419	-0.13489	0.062561	-0.010071	0.020599	-0.019226	-0.82123	0.66315	-0.11093	0.26627	-0.12405	0.24124	-0.20828	-0.10422	-0.021362	0.027771	0.027771	0.018463	0.66269	0.003815	0.006866
6.908	-0.009308	-0.26291	0.077667	-0.007324	0.015106	-0.014496	0.06485	0.000153	-0.052185	0.032043	-0.005798	0.06485	-0.13092	0.047913	-0.001373	0.021667	-0.042572	-0.82993	0.92346	0.07431	0.07309	-0.072174	-0.007324	-0.16708	-0.065918	-0.053864	0.007172	-0.084839	0.30518	0.2861	-0.002136	0.005341
6.909	-0.00946	-0.18692	0.068054	0.004883	0.01709	-0.010681	0.072784	0.006714	-0.037842	0.029907	-0.003052	0.060425	-0.13611	0.034332	-0.011597	0.018616	-0.000763	-0.78903	0.64011	0.16754	-0.14526	-0.023956	-0.081635	-0.21851	-0.093842	-0.048523	-0.00412	-0.097809	0.093536	0.15854	-0.001221	0.007019
6.91	-0.000458	-0.2092	0.059509	-0.006104	0.009155	-0.026398	0.060425	0.004578	-0.035095	0.028381	0	0.065155	-0.12787	0.044861	-0.015564	0.019836	0.041504	-0.82657	-0.09552	0.27283	-0.05188	-0.093231	-0.017242	-0.10391	-0.019989	-0.023193	0.006256	0.093994	0.06424	0.21576	-0.003052	0.002441
6.911	-0.005035	-0.20035	0.043182	-0.002441	0.002594	-0.007935	0.065613	0.00824	-0.023956	0.025024	-0.001831	0.061798	-0.12863	0.076904	-0.010376	0.015106	0.053864	-0.9285	-0.12085	0.10086	-0.005951	0.13214	0.079803	0.15457	0.051575	-0.065918	0.001068	0.10178	0.14832	0.10727	0.003967	-0.00351
6.912	-0.009613	-0.17502	0.048676	0.016632	0.009918	-0.012512	0.072937	0.007782	-0.033264	0.035553	-0.002136	0.067444	-0.13062	0.069885	-0.013428	0.027466	0.026703	-1.0065	-0.079193	-0.01709	0.17044	0.61859	0.10773	0.14252	0.041962	-0.079346	-0.003967	0.06134	0.10574	0.098114	-0.000916	-0.006409
6.913	-0.010071	-0.10513	0.04425	0.023651	0.006866	-0.006104	0.075989	0.01358	-0.029144	0.035858	-0.004883	0.077057	-0.12909	0.024414	-0.010376	0.015564	-0.039825	-0.923	-0.22614	-0.051422	0.07309	0.65689	0.068359	0.13473	0.075378	0.001068	0	0.003815	0.18234	0.028534	-0.002747	-0.006409
6.914	-0.007935	-0.071869	0.033112	0.007935	0.009308	-0.00946	0.070038	0.007935	-0.028687	0.036926	-0.007629	0.077362	-0.12695	0.026398	-0.010071	0.020905	-0.10101	-1.1293	-0.54077	-0.065155	-0.16571	0.48157	-0.031738	0.13611	-0.002136	0.038757	0.005341	-0.04303	0.24338	-0.009308	0.001984	-0.006256
6.915	-0.007019	-0.076904	0.030823	-0.006409	0.007172	0.004425	0.054016	0.007629	-0.014648	0.043335	0.001221	0.083466	-0.13748	0.021362	-0.010376	0.017242	-0.075378	-1.3388	-0.29541	-0.088348	0.055847	0.15671	0.000305	-0.027313	-0.13016	0.034332	0.011597	-0.041962	0.077209	-0.004425	-0.005493	-0.001984
6.916	-0.010529	-0.057068	0.031738	0.000305	0.004425	0.009308	0.030975	0.010223	-0.000458	0.033264	0.004425	0.073395	-0.13321	0.023499	-0.005035	0.023193	-0.035095	-1.5546	-1.3251	-0.033875	0.089874	0.007172	0.078278	-0.017853	-0.17227	0.015106	0.029602	0.027924	0.025024	-0.19012	-0.005188	-0.001373
6.917	-0.002441	-0.00824	0.044861	-0.00885	0.013428	0.003204	0.039825	0.009003	-0.00473	0.042114	-0.005951	0.08194	-0.12909	0.014801	-0.005951	0.003662	-0.016174	-1.447	-1.2135	-0.041046	-0.23178	-0.002289	0.023956	-0.044403	-0.16373	0.010986	0.025177	-0.016479	0.031281	-0.053711	-0.003357	-0.007019
6.918	-0.010529	0.071259	0.037689	0.005188	0.009308	0.001831	0.034332	0.014038	-0.009155	0.028839	0.001068	0.080109	-0.12466	0.013275	-0.005646	-0.01236	-0.055542	-1.2593	-0.64667	-0.039215	-0.46402	-0.046692	0.015564	0.025482	-0.082245	0.020599	0.027161	-0.034332	0.040283	-0.11414	-0.002441	-0.00946
6.919	-0.006104	0.044403	0.035553	-0.006256	0.00885	-0.010071	0.022888	0.009308	-0.001526	0.024872	-0.004272	0.076904	-0.12192	0.040588	-0.012817	-0.000916	-0.033875	-1.3777	-0.64453	0.002747	-0.37262	-0.29709	-0.067291	0.088043	0.039368	0.028992	0.033722	-0.035248	0.039368	-0.14267	-0.007324	0.004425
6.92	0.005646	0.049744	0.045166	-0.014343	0.003815	-0.014496	0.002289	0.006866	0.013733	0.027771	-0.015106	0.076599	-0.11398	0.034637	-0.022736	0.030823	-0.02594	-1.6637	0.17609	0.033264	-0.067444	-0.46555	-0.001678	0.080872	0.1297	0.049286	0.076141	-0.040131	-0.056915	-0.20859	0.000305	-0.000458
6.921	0.003967	0.043793	0.049438	-0.005493	0.005798	-0.017242	-0.005188	0.007782	0.021973	0.034332	-0.011902	0.080414	-0.13245	0.015869	-0.028992	-0.014648	-0.013733	-1.8166	0.31723	0.015717	-0.019836	-0.43869	0.25299	-0.019836	0.010681	0.071106	0.088654	-0.10956	-0.033875	-0.075684	-0.003357	0.006409
